<?xml version="1.0" encoding="UTF-8"?>
<svg version="1.1" xmlns="http://www.w3.org/2000/svg" width="32" height="32">
<path d="M0 0 C10.56 0 21.12 0 32 0 C32 10.56 32 21.12 32 32 C21.44 32 10.88 32 0 32 C0 21.44 0 10.88 0 0 Z " fill="#121212" transform="translate(0,0)"/>
<path d="M0 0 C3.625 0.1875 3.625 0.1875 6.625 2.1875 C7.4375 5.6875 7.4375 5.6875 7.625 9.1875 C5.625 11.1875 5.625 11.1875 3.75 11.453125 C3.04875 11.44796875 2.3475 11.4428125 1.625 11.4375 C0.92375 11.44265625 0.2225 11.4478125 -0.5 11.453125 C-2.375 11.1875 -2.375 11.1875 -4.375 9.1875 C-4.70252234 6.47295044 -4.5058425 3.93519241 -4.375 1.1875 C-3.375 0.1875 -3.375 0.1875 0 0 Z " fill="#030303" transform="translate(14.375,11.8125)"/>
<path d="M0 0 C2.97 0 5.94 0 9 0 C8.67 0.99 8.34 1.98 8 3 C8.639375 3.28875 9.27875 3.5775 9.9375 3.875 C12 5 12 5 13 7 C13.40616229 10.65546065 13.21434253 12.58917682 11.5 15.875 C8.47084317 18.44978331 6.79349229 18.74545844 2.90625 18.484375 C1 18 1 18 -1.5 15.875 C-3.2363575 12.54698146 -3.56311766 10.70048746 -3 7 C-1.5 5.375 -1.5 5.375 0 4 C0 2.68 0 1.36 0 0 Z M-1 6 C-1.22918242 10.01657143 -1.22918242 10.01657143 -1 14 C0.7564331 16.15705515 0.7564331 16.15705515 2.875 16.265625 C3.57625 16.26046875 4.2775 16.2553125 5 16.25 C5.70125 16.25515625 6.4025 16.2603125 7.125 16.265625 C9.2435669 16.15705515 9.2435669 16.15705515 11 14 C10.91256309 10.47105052 10.91256309 10.47105052 10 7 C7.10323828 5.06882552 1.95997134 3.04002866 -1 6 Z " fill="#6F6F6F" transform="translate(11,7)"/>
</svg>
